# FlyBrain Generated 3D Asset (OBJ)
v -2.000000 -0.750000 0.000000
v -2.000000 0.750000 0.000000
v -2.000000 -0.750000 0.150000
v -2.000000 0.750000 0.150000
v -1.666667 -0.750000 0.091667
v -1.666667 0.750000 0.091667
v -1.666667 -0.750000 0.241667
v -1.666667 0.750000 0.241667
v -1.333333 -0.750000 0.166667
v -1.333333 0.750000 0.166667
v -1.333333 -0.750000 0.316667
v -1.333333 0.750000 0.316667
v -1.000000 -0.750000 0.225000
v -1.000000 0.750000 0.225000
v -1.000000 -0.750000 0.375000
v -1.000000 0.750000 0.375000
v -0.666667 -0.750000 0.266667
v -0.666667 0.750000 0.266667
v -0.666667 -0.750000 0.416667
v -0.666667 0.750000 0.416667
v -0.333333 -0.750000 0.291667
v -0.333333 0.750000 0.291667
v -0.333333 -0.750000 0.441667
v -0.333333 0.750000 0.441667
v 0.000000 -0.750000 0.300000
v 0.000000 0.750000 0.300000
v 0.000000 -0.750000 0.450000
v 0.000000 0.750000 0.450000
v 0.333333 -0.750000 0.291667
v 0.333333 0.750000 0.291667
v 0.333333 -0.750000 0.441667
v 0.333333 0.750000 0.441667
v 0.666667 -0.750000 0.266667
v 0.666667 0.750000 0.266667
v 0.666667 -0.750000 0.416667
v 0.666667 0.750000 0.416667
v 1.000000 -0.750000 0.225000
v 1.000000 0.750000 0.225000
v 1.000000 -0.750000 0.375000
v 1.000000 0.750000 0.375000
v 1.333333 -0.750000 0.166667
v 1.333333 0.750000 0.166667
v 1.333333 -0.750000 0.316667
v 1.333333 0.750000 0.316667
v 1.666667 -0.750000 0.091667
v 1.666667 0.750000 0.091667
v 1.666667 -0.750000 0.241667
v 1.666667 0.750000 0.241667
v 2.000000 -0.750000 0.000000
v 2.000000 0.750000 0.000000
v 2.000000 -0.750000 0.150000
v 2.000000 0.750000 0.150000
v -2.000000 -0.750000 0.950000
v -2.000000 0.750000 0.950000
v 2.000000 -0.750000 0.950000
v 2.000000 0.750000 0.950000
f 3 7 8
f 3 8 4
f 1 6 5
f 1 2 6
f 1 5 7
f 1 7 3
f 2 8 6
f 2 4 8
f 7 11 12
f 7 12 8
f 5 10 9
f 5 6 10
f 5 9 11
f 5 11 7
f 6 12 10
f 6 8 12
f 11 15 16
f 11 16 12
f 9 14 13
f 9 10 14
f 9 13 15
f 9 15 11
f 10 16 14
f 10 12 16
f 15 19 20
f 15 20 16
f 13 18 17
f 13 14 18
f 13 17 19
f 13 19 15
f 14 20 18
f 14 16 20
f 19 23 24
f 19 24 20
f 17 22 21
f 17 18 22
f 17 21 23
f 17 23 19
f 18 24 22
f 18 20 24
f 23 27 28
f 23 28 24
f 21 26 25
f 21 22 26
f 21 25 27
f 21 27 23
f 22 28 26
f 22 24 28
f 27 31 32
f 27 32 28
f 25 30 29
f 25 26 30
f 25 29 31
f 25 31 27
f 26 32 30
f 26 28 32
f 31 35 36
f 31 36 32
f 29 34 33
f 29 30 34
f 29 33 35
f 29 35 31
f 30 36 34
f 30 32 36
f 35 39 40
f 35 40 36
f 33 38 37
f 33 34 38
f 33 37 39
f 33 39 35
f 34 40 38
f 34 36 40
f 39 43 44
f 39 44 40
f 37 42 41
f 37 38 42
f 37 41 43
f 37 43 39
f 38 44 42
f 38 40 44
f 43 47 48
f 43 48 44
f 41 46 45
f 41 42 46
f 41 45 47
f 41 47 43
f 42 48 46
f 42 44 48
f 47 51 52
f 47 52 48
f 45 50 49
f 45 46 50
f 45 49 51
f 45 51 47
f 46 52 50
f 46 48 52
f 1 3 4
f 1 4 2
f 49 52 51
f 49 50 52
f 53 55 3
f 55 51 3
f 54 4 56
f 56 4 52
